# xmcd
#
# Track frame offsets:
#	150
#	12255
#	26327
#	41963
#	54669
#	70421
#	81409
#	94854
#	109854
#	121502
#	135431
#	149946
#	161883
#	172302
#	185326
#	201222
#	215848
#	229232
#	242704
#	256358
#	268094
#	279531
#	294975
#	309759
#
# Disc length: 4301
#
# Revision: 2
# Processed by: cddbd v1.5.1PL0 Copyright (c) Steve Scherf et al.
# Submitted via: EasyCDDAExtractor 6.0.0.1
# Normalized: r1:DSETVAR1
#
DISCID=7310cb18
DTITLE=Various Artist - 50 ans de chansons de charme CD 3
DYEAR=1999
DGENRE=Rétro
TTITLE0=Henri salvador - Le petit souper aux chandelles
TTITLE1=Charles Trenet - Les oiseaux de Paris
TTITLE2=André Dassary - Viens, mon seul amour c'est toi
TTITLE3=Georges Ulmer - Marie, petit béguin du mois de mai
TTITLE4=Cora Madou - J'ai rêvé d'une fleur
TTITLE5=Maurice Chevalier - Mimi
TTITLE6=Marie José - La plus belle valse d'amour
TTITLE7=Georges Guétary - Boléro
TTITLE8=Léo Noël - Sous les ponts de paris
TTITLE9=Edith Piaf - C'est merveilleux
TTITLE10=Yves Montand - Mathilda
TTITLE11=Lina Margy - On ouvre demain
TTITLE12=Luis mariano - Fandango
TTITLE13=Lucienne Delyle - Un air d'accordéon
TTITLE14=Lys Gauty - J'ai trouvé le bonheur
TTITLE15=Marie José - Merci d'avance
TTITLE16=Tino Rossi - Destin
TTITLE17=Lina Margy - Tu m'apprendras
TTITLE18=Damia - La guinguette a fermé ses volets
TTITLE19=Yves Montand - C'est si bon
TTITLE20=Darcelys - Le petit cabanon
TTITLE21=Georges Ulmer - C'est loin tout ça
TTITLE22=André Baugé - J'ai toujours cru qu'un baiser
TTITLE23=Mayol - Bou-dou-ba-da-doum
EXTD=Vivaldi21
EXTT0=
EXTT1=
EXTT2=
EXTT3=
EXTT4=
EXTT5=
EXTT6=
EXTT7=
EXTT8=
EXTT9=
EXTT10=
EXTT11=
EXTT12=
EXTT13=
EXTT14=
EXTT15=
EXTT16=
EXTT17=
EXTT18=
EXTT19=
EXTT20=
EXTT21=
EXTT22=
EXTT23=
PLAYORDER=
